<svg height="192pt" preserveAspectRatio="xMidYMid meet" viewBox="0 0 192 192" width="192pt" xmlns="http://www.w3.org/2000/svg"><path d="m865 1830c-44-4-91-10-104-15-45-14-107-60-205-155-79-75-106-109-132-164-33-69-61-171-73-269-5-43-10-53-28-55-19-3-22-11-28-77-4-41-4-91 0-112s7-68 7-105c-1-62 1-69 23-84 14-9 25-26 25-38 0-11 6-49 14-84 11-54 11-64-2-75-9-6-30-34-49-62-88-132-103-145-290-239-22-11-23-16-23-153v-143h960 960v115 114l-47 67c-62 89-106 109-263 124-90 8-276 37-287 44-1 1 11 40 27 88 50 147 90 325 116 513 24 164 25 189 14 280-15 131-26 159-92 241-66 83-67 84-192 169-88 60-107 68-165 76-36 5-70 8-76 7-5 0-46-4-90-8zm-181-824c-3-8 4-24 17-37l22-22-29 7c-29 8-64 33-64 47 0 4 10 10 23 12 12 2 25 5 29 6 4 0 5-5 2-13zm166-62c0-2-27-4-60-4s-60 4-60 10 6 10 14 10 17 9 21 20c6 19 8 19 46-7 21-14 39-27 39-29zm134-96c-4-46-11-94-15-108-9-27-2 110 8 162 11 54 14 27 7-54zm186 57c0-23 46-41 65-25 8 7 15 19 15 26 0 17 5 17 31 4 23-13 25-46 3-54s-89-7-98 2c-4 4-28 14-54 23l-47 16 35 11c48 14 50 14 50-3zm-200-240c0-8-4-15-10-15-5 0-10 7-10 15s5 15 10 15c6 0 10-7 10-15zm96-230c64-27 23-38-115-32-116 5-212 24-234 47-20 19 299 6 349-15zm-296-27c37-15 290-29 313-17 18 10 18 10 1-18-53-84-119-119-208-110-62 6-127 36-148 69-8 13-24 44-36 70l-21 48 37-16c20-9 48-20 62-26zm887-195c-3-10-5-4-5 12 0 17 2 24 5 18 2-7 2-21 0-30zm-311-38c-1-36-16-51-16-16 0 18 9 51 14 51 2 0 2-16 2-35zm291 29c-3-3-12-4-19-1-8 3-5 6 6 6 11 1 17-2 13-5zm-208-54c-1-10-2-11-6-2-2 6-13 12-23 12-14 0-20-9-23-32-4-32-4-32-5 5-2 31 1 37 18 37 12 0 20 7 21 18 0 14 2 14 9-3 5-11 9-27 9-35zm92 23c-12-20-14-14-5 12 4 9 9 14 11 11 3-2 0-13-6-23zm66 21c-3-3-12-4-19-1-8 3-5 6 6 6 11 1 17-2 13-5zm-98-36c-1-16-3-18-6-6-2 9-12 19-21 21-12 3-10 5 6 6 17 1 22-4 21-21z" transform="matrix(.1 0 0 -.1 0 192)"/></svg>